<?xml version="1.0" encoding="UTF-8"?>
<svg width="207.49mm" height="225.78mm" version="1.1" viewBox="0 0 735.20989 799.99995" xmlns="http://www.w3.org/2000/svg">
 <g transform="translate(-1297.7 1001.9)">
  <path class="fil8" d="m1631.7-234c-7.324 1.6901-10.141 2.2535-13.521 2.8169 19.155 39.437 84.507 38.873 100.84-0.56337-2.8169 0.56337-9.5775-2.8169-12.958-2.8169-23.662 27.042-57.465 24.225-74.366 0.56338zm63.662-1.1268c-9.5774 12.958-40 17.465-54.084 0 15.211-11.268 37.183-11.831 54.084 0zm64.789-114.93c10.141-33.803 19.155-73.803 27.606-113.8-10.141 2.8169-22.535 3.9436-33.803 3.3803-7.324 33.239-14.648 72.113-18.592 107.61 7.8873 0.56338 17.465 1.6901 24.789 2.8169zm65.915-213.52c9.5775-5.0704 14.084-24.789 5.6338-29.859-104.79-0.56338-109.3 99.718-100.28 219.15 13.521-86.197 25.915-205.63 94.648-189.3zm-1.6901 7.3239c-34.93-7.3239-58.592 34.366-60.282 61.972 20.845 0.56338 67.042-28.169 60.282-61.972zm-218.03 202.25c-4.507-40-11.268-73.803-17.465-103.1-13.521 2.2535-31.549 0.56338-45.07-3.3803 10.704 34.93 27.042 75.493 41.69 110.99 7.3239-2.2535 14.084-3.3803 20.845-4.507zm-19.155-110.99c0-5.0704-1.1267-7.8873-2.8169-14.648-21.408 3.9436-44.507-3.9437-64.789-19.155-2.2535 15.211 22.535 38.873 67.606 33.803zm18.592 45.07c-12.394-87.324-27.042-139.15-99.718-139.72-6.1972-9.5774-6.7605-23.099-1.1267-31.549 95.211 19.155 118.31 82.253 108.73 172.39l-2.8169 44.507-5.0704-45.634zm-22.535-67.606c-45.07 5.0704-77.183-28.169-71.549-64.225 36.056 0.56338 62.535 26.479 71.549 64.225zm33.239 140.84c-83.38 5.0704-83.944 100.28-9.5774 107.61 17.465-0.56338 28.732-4.507 45.634-10.141 9.5775-2.8169 19.718-3.3803 32.113-0.56338 12.394 2.8169 10.704 5.0704 39.437 11.268 87.887 8.4507 87.887-87.324 40-101.41-20.282-3.9437-23.662-4.507-41.127-4.507 0-14.648-1.1267-41.69-1.1267-55.211-1.6902-36.62-1.1268-77.183-0.5634-92.394 5.6338-104.79 111.55-134.08 123.38-94.084 65.915 5.0704 134.08-5.6338 188.17-64.789-18.028 8.4507-58.028 9.5774-75.493 6.7606-37.746-6.1972-51.268-17.465-77.746-18.028-15.211 0-28.732 11.831-23.098 29.296 5.6338 16.901 32.676 16.338 59.155 13.521-14.648 12.958-49.014 9.5774-57.465 4.507-17.465-10.704-24.225-56.338 23.662-56.338 22.535-1.1268 92.394 35.493 150.99 14.084-16.338-1.6901-32.113-4.507-46.197-7.8873-95.774-24.225-189.3-63.098-182.53 43.38-7.8873 7.3239-45.07-4.507-52.958-23.099-16.338 10.141-14.648 26.479-6.1972 41.69-27.606 0-26.479-2.8169-49.014-14.648-20.845 8.4507-25.915 36.62-12.958 57.465-39.437-4.507-59.155-20.845-60.282-47.324-12.394 6.1972-24.789 4.507-36.62 2.8169 1.1267-15.211 0-29.859-5.6338-41.69-15.211 20.282-36.62 27.042-64.225 21.408 20.282-49.577-16.338-71.549-69.859-69.296-37.746 0-83.38 49.014-148.73 52.958 36.62 10.704 76.056 2.8169 116.62-14.648 83.944-38.873 102.54 70.422 2.2535 48.451 102.54 1.1268 55.775-69.296 3.3803-43.38-34.366 13.521-61.408 32.113-112.11 21.408 52.958 54.648 120 65.915 196.62 30.422 157.18 19.155 115.49 182.53 112.11 252.39zm-81.69-650.14c-63.662 46.197-90.141 130.14-64.225 196.62 14.648 38.31 55.211 41.127 59.718 67.606 1.1268 27.606-32.113 37.746-51.831 30.986-65.915-38.873-81.127-104.79-71.549-160.56 14.084-68.169 72.112-124.51 127.89-134.65zm263.66 251.27c-3.3802 24.225 10.141 41.69 33.803 41.69 83.38-25.915 107.04-89.014 80-181.41-15.775-38.873-28.169-58.028-48.451-74.366-17.465-19.718-64.225-38.873-63.098-42.253 114.37 119.44 29.296 199.44-2.2535 256.34zm24.225 50.704c-21.408-2.8169-32.676-15.211-33.803-29.296-27.042-34.366-43.38-32.113-75.493-9.0141-27.606-18.592-62.535-20.282-93.521 0-39.436-18.592-70.422-14.084-77.183-1.6901-5.6338 10.704 2.2535 34.93-38.31 40.563 19.155 9.5774 32.676 27.042 24.789 63.662 12.394 5.0704 33.803-5.0704 56.338-29.859 4.507 13.521 7.8873 29.296 9.014 51.268 14.084 3.3803 24.789-5.6338 37.183-23.099-2.8169 27.606 1.1267 54.084 36.056 60.845-3.3802-25.352 6.1972-45.07 27.606-59.155 18.028 15.775 29.296 20.845 33.803 15.775-0.5634-19.718 9.014-35.493 23.662-47.887 5.0704 17.465 19.155 37.746 43.944 34.93-3.9437-38.873 6.1972-55.775 25.915-67.042zm-67.606 227.04c1.1268-5.6338 3.3803-12.958 5.6338-18.592 10.704 1.1268 32.676-5.0704 52.394-19.718-5.0704 26.479-24.789 40.563-58.028 38.31zm9.5775 196.06c-12.394-0.56338-20.282-4.507-20.282-13.521 0-9.5774 11.268-15.211 20.845-13.521-10.141-7.3239-29.296-4.507-29.296 13.521-0.5633 18.028 18.592 20.282 28.732 13.521zm-187.61-3.9436c9.5774 14.084 30.986 8.4507 30.986-10.704-0.5633-17.465-19.155-21.408-31.549-9.5774 12.394-2.2535 21.408-0.56337 21.408 10.141-0.5634 13.521-11.268 12.958-20.845 10.141z" fill-rule="evenodd"/>
 </g>
</svg>
